<?xml version="1.0"?>
<svg xmlns="http://www.w3.org/2000/svg" xmlns:xlink="http://www.w3.org/1999/xlink" version="1.1" viewBox="0 0 192 192" width="24px" height="24px"><g transform="translate(-16.32,-16.32) scale(1.17,1.17)"><g fill="none" fill-rule="nonzero" stroke="none" stroke-width="1" stroke-linecap="butt" stroke-linejoin="miter" stroke-miterlimit="10" stroke-dasharray="" stroke-dashoffset="0" font-family="none" font-weight="none" font-size="none" text-anchor="none" style="mix-blend-mode: normal"><path d="M0,192v-192h192v192z" fill="none"/><g fill="#ff625d"><path d="M96,16c-44.24,0 -80,35.76 -80,80c0,44.24 35.76,80 80,80c44.24,0 80,-35.76 80,-80c0,-44.24 -35.76,-80 -80,-80zM136,124.72l-11.28,11.28l-28.72,-28.72l-28.72,28.72l-11.28,-11.28l28.72,-28.72l-28.72,-28.72l11.28,-11.28l28.72,28.72l28.72,-28.72l11.28,11.28l-28.72,28.72z"/></g></g></g></svg>
