<?xml version="1.0"?>
<svg xmlns="http://www.w3.org/2000/svg" xmlns:xlink="http://www.w3.org/1999/xlink" version="1.1" viewBox="0 0 192 192" width="26px" height="26px"><g fill="none" fill-rule="nonzero" stroke="none" stroke-width="1" stroke-linecap="butt" stroke-linejoin="miter" stroke-miterlimit="10" stroke-dasharray="" stroke-dashoffset="0" font-family="none" font-weight="none" font-size="none" text-anchor="none" style="mix-blend-mode: normal"><path d="M0,192v-192h192v192z" fill="none"/><g fill="#00c06d"><g id="surface1"><path d="M96,1.38462c-52.24039,0 -94.61538,42.375 -94.61538,94.61538c0,52.24039 42.375,94.61538 94.61538,94.61538c52.24039,0 94.61538,-42.375 94.61538,-94.61538c0,-52.24039 -42.375,-94.61538 -94.61538,-94.61538zM145.73077,66.72115l-50.74039,74.82693c-1.5,2.22115 -3.89423,3.72115 -6.25961,3.72115c-2.36538,0 -4.96154,-1.29808 -6.63461,-2.9423l-29.76923,-29.79808c-2.01923,-2.01923 -2.01923,-5.33654 0,-7.35576l7.35576,-7.35577c2.01923,-2.01923 5.33654,-2.01923 7.32693,0l19.38462,19.35577l42.11538,-62.13462c1.61538,-2.36538 4.875,-2.97116 7.24039,-1.38462l8.62499,5.85577c2.33654,1.58654 2.97116,4.84615 1.35577,7.21153z"/></g></g></g></svg>
