<?xml version="1.0"?>
<svg xmlns="http://www.w3.org/2000/svg" xmlns:xlink="http://www.w3.org/1999/xlink" version="1.1" viewBox="0 0 192 192" width="24px" height="24px"><g fill="none" fill-rule="nonzero" stroke="none" stroke-width="1" stroke-linecap="butt" stroke-linejoin="miter" stroke-miterlimit="10" stroke-dasharray="" stroke-dashoffset="0" font-family="none" font-weight="none" font-size="none" text-anchor="none" style="mix-blend-mode: normal"><path d="M0,192v-192h192v192z" fill="none"/><g fill="#ffffff"><path d="M80,42.73438c-2.047,0 -4.09625,0.79537 -5.65625,2.35938l-45.25,45.25c-3.128,3.128 -3.128,8.1925 0,11.3125l45.25,45.25c3.128,3.128 8.1925,3.128 11.3125,0l0.6875,-0.6875c3.128,-3.128 3.128,-8.1925 0,-11.3125l-30.90625,-30.90625h104.5625c4.416,0 8,-3.584 8,-8c0,-4.416 -3.584,-8 -8,-8h-104.5625l30.90625,-30.90625c3.128,-3.128 3.128,-8.1925 0,-11.3125l-0.6875,-0.6875c-1.564,-1.564 -3.60925,-2.35938 -5.65625,-2.35938z"/></g></g></svg>
