<?xml version="1.0"?>
<svg xmlns="http://www.w3.org/2000/svg" xmlns:xlink="http://www.w3.org/1999/xlink" version="1.1" viewBox="0 0 192 192" width="24px" height="24px"><g fill="none" fill-rule="nonzero" stroke="none" stroke-width="1" stroke-linecap="butt" stroke-linejoin="miter" stroke-miterlimit="10" stroke-dasharray="" stroke-dashoffset="0" font-family="none" font-weight="none" font-size="none" text-anchor="none" style="mix-blend-mode: normal"><path d="M0,192v-192h192v192z" fill="none"/><g fill="#ffffff"><path d="M96,48.152l12.944,26.232l3.72,7.544l8.328,1.208l28.944,4.208l-20.944,20.416l-6.024,5.872l1.424,8.288l4.944,28.832l-25.888,-13.608l-7.448,-3.92l-7.448,3.912l-25.888,13.608l4.944,-28.832l1.424,-8.288l-6.024,-5.864l-20.944,-20.416l28.944,-4.208l8.328,-1.208l3.72,-7.544l12.944,-26.232M96,12l-27.296,55.304l-61.024,8.864l44.16,43.048l-10.424,60.784l54.584,-28.696l54.584,28.696l-10.424,-60.784l44.16,-43.048l-61.032,-8.872l-27.288,-55.296z"/></g></g></svg>
