<?xml version="1.0"?>
<svg xmlns="http://www.w3.org/2000/svg" viewBox="0 0 24 24" width="24px" height="24px">
    <path d="M12,6.019l1.618,3.279l0.465,0.943l1.041,0.151l3.618,0.526l-2.618,2.552l-0.753,0.734l0.178,1.036l0.618,3.604 l-3.236-1.701L12,16.653l-0.931,0.489l-3.236,1.701l0.618-3.604l0.178-1.036L7.876,13.47l-2.618-2.552l3.618-0.526l1.041-0.151 l0.465-0.943L12,6.019 M12,1.5L8.588,8.413L0.96,9.521l5.52,5.381L5.177,22.5L12,18.913l6.823,3.587l-1.303-7.598l5.52-5.381 l-7.629-1.109L12,1.5L12,1.5z"/>
</svg>
