<?xml version="1.0"?>
<svg xmlns="http://www.w3.org/2000/svg" xmlns:xlink="http://www.w3.org/1999/xlink" version="1.1" viewBox="0 0 192 192" width="24px" height="24px"><g fill="none" fill-rule="nonzero" stroke="none" stroke-width="1" stroke-linecap="butt" stroke-linejoin="miter" stroke-miterlimit="10" stroke-dasharray="" stroke-dashoffset="0" font-family="none" font-weight="none" font-size="none" text-anchor="none" style="mix-blend-mode: normal"><path d="M0,192v-192h192v192z" fill="none"/><g fill="#ffffff"><path d="M96,16c-44.184,0 -80,35.816 -80,80c0,44.184 35.816,80 80,80c44.184,0 80,-35.816 80,-80c0,-44.184 -35.816,-80 -80,-80zM96,38c14.36,0 26,11.64 26,26c0,14.36 -11.64,26 -26,26c-14.36,0 -26,-11.64 -26,-26c0,-14.36 11.64,-26 26,-26zM96,160c-22.16,0 -41.68,-11.264 -53.168,-28.376c8.968,-13.04 37.536,-19.624 53.168,-19.624c15.632,0 44.2,6.584 53.168,19.624c-11.488,17.112 -31.008,28.376 -53.168,28.376z"/></g></g></svg>
