<?xml version="1.0"?>
<svg xmlns="http://www.w3.org/2000/svg" xmlns:xlink="http://www.w3.org/1999/xlink" version="1.1" viewBox="0 0 192 192" width="24px" height="24px"><g fill="none" fill-rule="nonzero" stroke="none" stroke-width="1" stroke-linecap="butt" stroke-linejoin="miter" stroke-miterlimit="10" stroke-dasharray="" stroke-dashoffset="0" font-family="none" font-weight="none" font-size="none" text-anchor="none" style="mix-blend-mode: normal"><path d="M0,192v-192h192v192z" fill="none"/><g fill="#ffffff"><g id="surface1"><path d="M24,72c-13.25,0 -24,10.75 -24,24c0,13.25 10.75,24 24,24c13.25,0 24,-10.75 24,-24c0,-13.25 -10.75,-24 -24,-24zM96,72c-13.25,0 -24,10.75 -24,24c0,13.25 10.75,24 24,24c13.25,0 24,-10.75 24,-24c0,-13.25 -10.75,-24 -24,-24zM168,72c-13.25,0 -24,10.75 -24,24c0,13.25 10.75,24 24,24c13.25,0 24,-10.75 24,-24c0,-13.25 -10.75,-24 -24,-24z"/></g></g></g></svg>
