<?xml version="1.0"?>
<svg xmlns="http://www.w3.org/2000/svg" xmlns:xlink="http://www.w3.org/1999/xlink" version="1.1" viewBox="0 0 192 192" width="24px" height="24px"><g fill="none" fill-rule="nonzero" stroke="none" stroke-width="1" stroke-linecap="butt" stroke-linejoin="miter" stroke-miterlimit="10" stroke-dasharray="" stroke-dashoffset="0" font-family="none" font-weight="none" font-size="none" text-anchor="none" style="mix-blend-mode: normal"><path d="M0,192v-192h192v192z" fill="none"/><g fill="#ffffff"><path d="M96,32c-54.864,0 -80.91438,47.02912 -87.23438,60.45313c-1.056,2.24 -1.056,4.83812 0,7.07812c6.32,13.432 32.37038,60.46875 87.23438,60.46875c54.672,0 80.73987,-46.6965 87.17187,-60.3125c1.104,-2.344 1.104,-5.03101 0,-7.37501c-6.432,-13.616 -32.49987,-60.3125 -87.17187,-60.3125zM96,56c22.088,0 40,17.912 40,40c0,22.088 -17.912,40 -40,40c-22.088,0 -40,-17.912 -40,-40c0,-22.088 17.912,-40 40,-40zM96,72c-13.25483,0 -24,10.74517 -24,24c0,13.25483 10.74517,24 24,24c13.25483,0 24,-10.74517 24,-24c0,-13.25483 -10.74517,-24 -24,-24z"/></g></g></svg>
