<?xml version="1.0"?>
<svg xmlns="http://www.w3.org/2000/svg" xmlns:xlink="http://www.w3.org/1999/xlink" version="1.1" viewBox="0 0 192 192" width="24px" height="24px"><g fill="none" fill-rule="nonzero" stroke="none" stroke-width="1" stroke-linecap="butt" stroke-linejoin="miter" stroke-miterlimit="10" stroke-dasharray="" stroke-dashoffset="0" font-family="none" font-weight="none" font-size="none" text-anchor="none" style="mix-blend-mode: normal"><path d="M0,192v-192h192v192z" fill="none"/><g fill="#000000"><path d="M96,16c-44.112,0 -80,35.888 -80,80c0,44.112 35.888,80 80,80c2.992,0 5.94738,-0.19562 8.85938,-0.51562l-23.48438,-23.48438l48,-48h22.625v24c2.584,0 5.325,0.217 8.125,0.625c0.024,-0.048 0.0385,-0.10825 0.0625,-0.15625c2.8,0.32 5.53987,0.7975 8.17187,1.4375c4.856,-10.312 7.64062,-21.77825 7.64062,-33.90625c0,-44.112 -35.888,-80 -80,-80zM88,48h16v51.3125l-34.34375,34.34375l-11.3125,-11.3125l29.65625,-29.65625zM136,120l-32,32l32,32v-24h15.95313c4.016,0.048 24.04687,1.416 24.04687,24v8h16v-8c0,-31.64 -26.168,-40 -40,-40h-16z"/></g></g></svg>
