<?xml version="1.0"?>
<svg xmlns="http://www.w3.org/2000/svg" xmlns:xlink="http://www.w3.org/1999/xlink" version="1.1" viewBox="0 0 192 192" width="26px" height="26px"><g transform="translate(14.4,14.4) scale(0.85,0.85)"><g fill="none" fill-rule="nonzero" stroke="none" stroke-width="1" stroke-linecap="butt" stroke-linejoin="miter" stroke-miterlimit="10" stroke-dasharray="" stroke-dashoffset="0" font-family="none" font-weight="none" font-size="none" text-anchor="none" style="mix-blend-mode: normal"><path d="M0,192v-192h192v192z" fill="none"/><g fill="#000000"><g id="surface1"><path d="M96,0c-53.01923,0 -96,42.98077 -96,96c0,53.01923 42.98077,96 96,96c53.01923,0 96,-42.98077 96,-96c0,-53.01923 -42.98077,-96 -96,-96zM96,14.76923c44.79808,0 81.23077,36.43269 81.23077,81.23077c0,44.79808 -36.43269,81.23077 -81.23077,81.23077c20.39423,0 36.92308,-36.375 36.92308,-81.23077c0,-44.85577 -16.52884,-81.23077 -36.92308,-81.23077z"/></g></g></g></g></svg>
