<?xml version="1.0"?>
<svg xmlns="http://www.w3.org/2000/svg" viewBox="0 0 30 30" width="30px" height="30px">
    <path style="line-height:normal;text-indent:0;text-align:start;text-decoration-line:none;text-decoration-style:solid;text-decoration-color:#000;text-transform:none;block-progression:tb;isolation:auto;mix-blend-mode:normal" d="M 15 3 C 8.3845336 3 3 8.3845336 3 15 C 3 21.615466 8.3845336 27 15 27 C 21.615466 27 27 21.615466 27 15 C 27 8.3845336 21.615466 3 15 3 z M 10.001953 6.3417969 L 13.009766 11.554688 C 11.816833 12.249616 11 13.529304 11 15 L 5 15 C 5 11.289958 7.0118236 8.0679581 10.001953 6.3417969 z M 19.998047 6.3417969 C 22.988176 8.0679581 25 11.289958 25 15 L 19 15 C 19 13.529304 18.183167 12.249616 16.990234 11.554688 L 19.998047 6.3417969 z M 15 13 C 15.17658 13 15.345525 13.027413 15.507812 13.072266 C 15.520477 13.075523 15.532361 13.08049 15.544922 13.083984 C 15.703242 13.131155 15.855845 13.194295 15.996094 13.275391 L 15.998047 13.271484 C 16.596973 13.614316 17 14.250812 17 15 L 16.990234 15 C 16.990723 15.16607 16.97176 15.333797 16.931641 15.498047 C 16.9286 15.510129 16.923177 15.521214 16.919922 15.533203 C 16.880886 15.680878 16.822972 15.824851 16.746094 15.964844 C 16.736564 15.982252 16.728778 16.0005 16.71875 16.017578 C 16.537384 16.323779 16.283919 16.55818 15.996094 16.724609 L 15.998047 16.728516 C 15.704273 16.896675 15.367478 17 15 17 C 14.632522 17 14.295727 16.896675 14.001953 16.728516 L 14.003906 16.724609 C 13.716081 16.55818 13.462576 16.323779 13.28125 16.017578 C 13.271222 16.0005 13.263436 15.982252 13.253906 15.964844 C 13.177028 15.824851 13.119214 15.680878 13.080078 15.533203 C 13.076659 15.520609 13.071542 15.50879 13.068359 15.496094 C 13.028433 15.332456 13.007813 15.165429 13.007812 15 L 13 15 C 13 14.250812 13.403027 13.614316 14.001953 13.271484 L 14.003906 13.275391 C 14.144155 13.194295 14.296758 13.131155 14.455078 13.083984 C 14.467639 13.08049 14.479523 13.075523 14.492188 13.072266 C 14.654475 13.027413 14.82342 13 15 13 z M 13.009766 18.445312 C 13.599167 18.788661 14.273362 19 15 19 C 15.726638 19 16.400833 18.788661 16.990234 18.445312 L 19.998047 23.658203 C 18.527588 24.507079 16.824491 25 15 25 C 13.175509 25 11.472412 24.507079 10.001953 23.658203 L 13.009766 18.445312 z" font-weight="400" font-family="sans-serif" white-space="normal" overflow="visible"/>
</svg>
