<?xml version="1.0"?>
<svg xmlns="http://www.w3.org/2000/svg" xmlns:xlink="http://www.w3.org/1999/xlink" version="1.1" viewBox="0 0 192 192" width="30px" height="30px"><g fill="none" fill-rule="nonzero" stroke="none" stroke-width="1" stroke-linecap="butt" stroke-linejoin="miter" stroke-miterlimit="10" stroke-dasharray="" stroke-dashoffset="0" font-family="none" font-weight="none" font-size="none" text-anchor="none" style="mix-blend-mode: normal"><path d="M0,192v-192h192v192z" fill="none"/><g fill="#ffffff"><path d="M96,19.2c-42.33898,0 -76.8,34.46102 -76.8,76.8c0,42.33898 34.46102,76.8 76.8,76.8c42.33898,0 76.8,-34.46102 76.8,-76.8c0,-42.33898 -34.46102,-76.8 -76.8,-76.8zM64.0125,40.5875l19.25,33.3625c-7.63477,4.44754 -12.8625,12.63754 -12.8625,22.05h-38.4c0,-23.74427 12.87567,-44.36507 32.0125,-55.4125zM127.9875,40.5875c19.13683,11.04743 32.0125,31.66823 32.0125,55.4125h-38.4c0,-9.41245 -5.22773,-17.60246 -12.8625,-22.05zM96,83.2c1.13011,0 2.21136,0.17544 3.25,0.4625c0.08106,0.02084 0.15711,0.05263 0.2375,0.075c1.01325,0.30189 1.98991,0.70599 2.8875,1.225l0.0125,-0.025c3.83313,2.19412 6.4125,6.2677 6.4125,11.0625h-0.0625c0.00313,1.06285 -0.11823,2.1363 -0.375,3.1875c-0.01946,0.07732 -0.05417,0.14827 -0.075,0.225c-0.24983,0.94512 -0.62048,1.86655 -1.1125,2.7625c-0.06099,0.11141 -0.11082,0.2282 -0.175,0.3375c-1.16074,1.95969 -2.78292,3.45985 -4.625,4.525l0.0125,0.025c-1.88015,1.07622 -4.03564,1.7375 -6.3875,1.7375c-2.35186,0 -4.50735,-0.66128 -6.3875,-1.7375l0.0125,-0.025c-1.84208,-1.06515 -3.46451,-2.56531 -4.625,-4.525c-0.06418,-0.1093 -0.11401,-0.22609 -0.175,-0.3375c-0.49202,-0.89596 -0.86203,-1.81738 -1.1125,-2.7625c-0.02188,-0.0806 -0.05463,-0.15624 -0.075,-0.2375c-0.25553,-1.04728 -0.38749,-2.11626 -0.3875,-3.175h-0.05c0,-4.7948 2.57937,-8.86838 6.4125,-11.0625l0.0125,0.025c0.89759,-0.51901 1.87425,-0.92311 2.8875,-1.225c0.08039,-0.02236 0.15645,-0.05415 0.2375,-0.075c1.03864,-0.28706 2.11988,-0.4625 3.25,-0.4625zM83.2625,118.05c3.77217,2.19743 8.08701,3.55 12.7375,3.55c4.65048,0 8.96533,-1.35257 12.7375,-3.55l19.25,33.3625c-9.41094,5.43281 -20.31076,8.5875 -31.9875,8.5875c-11.67674,0 -22.57656,-3.15469 -31.9875,-8.5875z"/></g></g></svg>
