<?xml version="1.0"?>
<svg xmlns="http://www.w3.org/2000/svg" xmlns:xlink="http://www.w3.org/1999/xlink" version="1.1" viewBox="0 0 192 192" width="30px" height="30px"><g fill="none" fill-rule="nonzero" stroke="none" stroke-width="1" stroke-linecap="butt" stroke-linejoin="miter" stroke-miterlimit="10" stroke-dasharray="" stroke-dashoffset="0" font-family="none" font-weight="none" font-size="none" text-anchor="none" style="mix-blend-mode: normal"><path d="M0,192v-192h192v192z" fill="none"/><g fill="#ffffff"><path d="M96,19.2c-42.4128,0 -76.8,34.3872 -76.8,76.8c0,42.4128 34.3872,76.8 76.8,76.8c42.4128,0 76.8,-34.3872 76.8,-76.8c0,-42.4128 -34.3872,-76.8 -76.8,-76.8zM96,144c-5.2992,0 -9.6,-4.3008 -9.6,-9.6c0,-5.2992 4.3008,-9.6 9.6,-9.6c5.2992,0 9.6,4.3008 9.6,9.6c0,5.2992 -4.3008,9.6 -9.6,9.6zM109.2352,99.2c-4.2368,3.9104 -6.8352,6.4768 -6.8352,9.6h-12.8c0,-8.8896 6.0736,-14.496 10.9504,-19.008c5.1136,-4.7232 8.2496,-7.8784 8.2496,-12.992c0,-7.0592 -5.7408,-12.8 -12.8,-12.8c-7.0592,0 -12.8,5.7408 -12.8,12.8h-12.8c0,-14.1184 11.4816,-25.6 25.6,-25.6c14.1184,0 25.6,11.4816 25.6,25.6c0,10.976 -6.8544,17.3056 -12.3648,22.4z"/></g></g></svg>
