<?xml version="1.0"?>
<svg xmlns="http://www.w3.org/2000/svg" xmlns:xlink="http://www.w3.org/1999/xlink" version="1.1" viewBox="0 0 192 192" width="24px" height="24px"><g transform="translate(-15.36,-15.36) scale(1.16,1.16)"><g fill="none" fill-rule="nonzero" stroke="none" stroke-width="1" stroke-linecap="butt" stroke-linejoin="miter" stroke-miterlimit="10" stroke-dasharray="" stroke-dashoffset="0" font-family="none" font-weight="none" font-size="none" text-anchor="none" style="mix-blend-mode: normal"><path d="M0,192v-192h192v192z" fill="none"/><g fill="#000000"><path d="M91.39062,16c-1.952,0 -3.63312,1.41575 -3.95312,3.34375l-2.26563,13.64062c-3.89398,0.66936 -7.65846,1.70424 -11.28125,3.04687l-8.8125,-10.6875c-1.24,-1.512 -3.39775,-1.90588 -5.09375,-0.92188l-7.96875,4.60937c-1.696,0.976 -2.438,3.03538 -1.75,4.85938l4.84375,12.9375c-3.00347,2.50305 -5.7782,5.27778 -8.28125,8.28125l-12.9375,-4.84375c-1.824,-0.688 -3.88338,0.054 -4.85938,1.75l-4.60937,7.96875c-0.984,1.696 -0.59012,3.85375 0.92188,5.09375l10.6875,8.8125c-1.34263,3.62278 -2.37752,7.38726 -3.04687,11.28125l-13.64062,2.26563c-1.928,0.328 -3.34375,1.99312 -3.34375,3.95312v9.21875c0,1.952 1.41575,3.63312 3.34375,3.95312l13.64062,2.26563c0.66936,3.89398 1.70424,7.65846 3.04687,11.28125l-10.6875,8.8125c-1.512,1.24 -1.89788,3.39775 -0.92188,5.09375l4.60937,7.96875c0.976,1.696 3.03538,2.438 4.85938,1.75l12.9375,-4.84375c2.50305,3.00347 5.27778,5.77821 8.28125,8.28125l-4.84375,12.9375c-0.688,1.832 0.062,3.88338 1.75,4.85938l7.96875,4.60938c1.696,0.976 3.85375,0.58212 5.09375,-0.92188l8.79688,-10.6875c3.62698,1.34514 7.39796,2.37667 11.29687,3.04687l2.26563,13.64062c0.328,1.928 1.99312,3.34375 3.95312,3.34375h9.21875c1.952,0 3.63312,-1.41575 3.95312,-3.34375l2.26563,-13.64062c3.89398,-0.66936 7.65846,-1.70424 11.28125,-3.04687l8.8125,10.6875c1.24,1.512 3.39775,1.89788 5.09375,0.92188l7.96875,-4.60938c1.696,-0.976 2.438,-3.03538 1.75,-4.85938l-4.84375,-12.9375c3.00347,-2.50304 5.77821,-5.27778 8.28125,-8.28125l12.9375,4.84375c1.832,0.688 3.88338,-0.062 4.85938,-1.75l4.60938,-7.96875c0.976,-1.696 0.58212,-3.85375 -0.92188,-5.09375l-10.6875,-8.79687c1.34514,-3.62698 2.37667,-7.39796 3.04687,-11.29687l13.64062,-2.26563c1.928,-0.328 3.34375,-1.99312 3.34375,-3.95312v-9.21875c0,-1.952 -1.41575,-3.63312 -3.34375,-3.95312l-13.64062,-2.26563c-0.66936,-3.89398 -1.70424,-7.65846 -3.04687,-11.28125l10.6875,-8.8125c1.512,-1.24 1.89788,-3.39775 0.92188,-5.09375l-4.60938,-7.96875c-0.976,-1.696 -3.03538,-2.438 -4.85938,-1.75l-12.9375,4.84375c-2.50304,-3.00347 -5.27778,-5.7782 -8.28125,-8.28125l4.84375,-12.9375c0.688,-1.832 -0.062,-3.88338 -1.75,-4.85938l-7.96875,-4.60937c-1.696,-0.976 -3.85375,-0.58213 -5.09375,0.92188l-8.79687,10.6875c-3.62698,-1.34514 -7.39796,-2.37667 -11.29687,-3.04687l-2.26563,-13.64062c-0.328,-1.928 -1.99312,-3.34375 -3.95312,-3.34375zM88,48.71875v24.67187c-9.58287,3.38805 -15.99236,12.44521 -16,22.60938c0.0004,1.47291 0.13639,2.94265 0.40625,4.39062l-21.375,12.32813c-1.9254,-5.20809 -3.03125,-10.82286 -3.03125,-16.71875c0,-23.87086 17.24289,-43.48961 40,-47.28125zM104,48.71875c22.75711,3.79164 40,23.41039 40,47.28125c0,5.903 -1.11704,11.52106 -3.04687,16.73438l-21.375,-12.35938c0.27415,-1.44236 0.41536,-2.90683 0.42187,-4.375c-0.01425,-10.15843 -6.42252,-19.20761 -16,-22.59375zM111.57813,114.21875l21.45312,12.39062c-8.78814,10.63881 -22.08225,17.39062 -37.03125,17.39062c-14.949,0 -28.2431,-6.75182 -37.03125,-17.39062l21.4375,-12.375c4.34497,3.71837 9.87492,5.76301 15.59375,5.76562c5.71544,-0.01069 11.23945,-2.06072 15.57813,-5.78125z"/></g></g></g></svg>
