<?xml version="1.0"?>
<svg xmlns="http://www.w3.org/2000/svg" xmlns:xlink="http://www.w3.org/1999/xlink" version="1.1" viewBox="0 0 192 192" width="24px" height="24px"><g fill="none" fill-rule="nonzero" stroke="none" stroke-width="1" stroke-linecap="butt" stroke-linejoin="miter" stroke-miterlimit="10" stroke-dasharray="" stroke-dashoffset="0" font-family="none" font-weight="none" font-size="none" text-anchor="none" style="mix-blend-mode: normal"><path d="M0,192v-192h192v192z" fill="none"/><g fill="#ffffff"><path d="M96,16c-44.184,0 -80,35.816 -80,80c0,44.184 35.816,80 80,80c44.184,0 80,-35.816 80,-80c0,-44.184 -35.816,-80 -80,-80zM96,32v0c4.416,0 8,3.584 8,8v48c0,4.416 -3.584,8 -8,8v0c-4.416,0 -8,-3.584 -8,-8v-48c0,-4.416 3.584,-8 8,-8zM82.944,158.696c-24.504,-4.872 -44.328,-24.424 -49.48,-48.872c-5.736,-27.184 5.936,-52.264 25.92,-66.248c5.304,-3.704 12.616,0.104 12.616,6.568v0c0,2.712 -1.448,5.136 -3.656,6.704c-14.208,10.056 -22.76,27.6 -19.736,46.864c3.264,20.832 20.632,37.464 41.576,39.944c29.056,3.432 53.816,-19.272 53.816,-47.656c0,-16.168 -8.056,-30.472 -20.352,-39.16c-2.208,-1.568 -3.648,-3.976 -3.648,-6.68v0c0,-6.416 7.248,-10.32 12.512,-6.656c16.6,11.568 27.488,30.776 27.488,52.496c0,39.56 -36.08,70.848 -77.056,62.696z"/></g></g></svg>
