<?xml version="1.0"?>
<svg xmlns="http://www.w3.org/2000/svg" xmlns:xlink="http://www.w3.org/1999/xlink" version="1.1" viewBox="0 0 192 192" width="30px" height="30px"><g transform="translate(-7.68,-7.68) scale(1.08,1.08)"><g fill="none" fill-rule="nonzero" stroke="none" stroke-width="1" stroke-linecap="butt" stroke-linejoin="miter" stroke-miterlimit="10" stroke-dasharray="" stroke-dashoffset="0" font-family="none" font-weight="none" font-size="none" text-anchor="none" style="mix-blend-mode: normal"><path d="M0,192v-192h192v192z" fill="none"/><g fill="#ffffff"><path d="M96,19.2c-42.33898,0 -76.8,34.46102 -76.8,76.8c0,42.33898 34.46102,76.8 76.8,76.8c42.33898,0 76.8,-34.46102 76.8,-76.8c0,-42.33898 -34.46102,-76.8 -76.8,-76.8zM96,32c35.42102,0 64,28.57898 64,64c0,35.42102 -28.57898,64 -64,64c-35.42102,0 -64,-28.57898 -64,-64c0,-35.42102 28.57898,-64 64,-64zM96,44.8c-28.2752,0 -51.2,22.9248 -51.2,51.2c0,28.2752 22.9248,51.2 51.2,51.2c28.2752,0 51.2,-22.9248 51.2,-51.2c0,-28.2752 -22.9248,-51.2 -51.2,-51.2zM96,64c1.6384,0 3.277,0.627 4.525,1.875l19.2,19.2c2.5024,2.5024 2.5024,6.5476 0,9.05c-2.5024,2.5024 -6.5476,2.5024 -9.05,0l-8.275,-8.275v35.75c0,3.5328 -2.8672,6.4 -6.4,6.4c-3.5328,0 -6.4,-2.8672 -6.4,-6.4v-35.75l-8.275,8.275c-2.5024,2.5024 -6.5476,2.5024 -9.05,0c-2.5024,-2.5024 -2.5024,-6.5476 0,-9.05l19.2,-19.2c1.248,-1.248 2.8866,-1.875 4.525,-1.875z"/></g></g></g></svg>
