<?xml version="1.0"?>
<svg xmlns="http://www.w3.org/2000/svg" xmlns:xlink="http://www.w3.org/1999/xlink" version="1.1" viewBox="0 0 192 192" width="24px" height="24px"><g fill="none" fill-rule="nonzero" stroke="none" stroke-width="1" stroke-linecap="butt" stroke-linejoin="miter" stroke-miterlimit="10" stroke-dasharray="" stroke-dashoffset="0" font-family="none" font-weight="none" font-size="none" text-anchor="none" style="mix-blend-mode: normal"><path d="M0,192v-192h192v192z" fill="none"/><g fill="#ffffff"><path d="M96,16c-26.096,0 -49.22775,12.616 -63.84375,32h-0.15625v0.20312c-7.896,10.544 -13.29875,23.0635 -15.21875,36.6875c-5.12,36.312 16.30813,70.019 49.82813,84.875c10.144,4.496 19.98187,6.22675 29.42187,6.21875c4.416,0.008 7.96875,-3.63125 7.96875,-8.03125v-7.95313v-56c0,-4.416 -3.584,-8 -8,-8h-16c-4.416,0 -8,-3.584 -8,-8c0,-4.448 3.62975,-8.056 8.09375,-8c4.384,0.056 7.90625,-3.616 7.90625,-8v-8c0,-4.416 3.584,-8 8,-8h8c8.84,0 16,-7.16 16,-16v-3.28125c23.424,9.52 40,32.48125 40,59.28125c0,0.096 -0.01562,0.18525 -0.01562,0.28125c0,0 0.03098,-0.00008 0.03125,0c0.15133,4.30202 3.6797,7.71301 7.98438,7.71875c4.41828,0 8,-3.58172 8,-8c0.00133,-0.25035 -0.0091,-0.50063 -0.03125,-0.75c-0.40829,-43.76439 -36.10968,-79.25 -79.96875,-79.25zM33.67188,81.67187l38.32812,38.32813v8c0,8.84 7.16,16 16,16v15.45313c-31.52,-3.96 -56,-30.87713 -56,-63.45313c0,-4.928 0.61588,-9.71213 1.67188,-14.32813zM125.0625,87.8125c-2.68046,0.34649 -5.0625,2.54375 -5.0625,5.71875v57.14062c0,3.512 4.21362,5.31463 6.76562,2.89062l11.42188,-10.85937l12.37499,28.53125c2.13601,4.92 7.88563,7.13787 12.76563,4.92187c4.816,-2.192 6.94962,-7.8715 4.76562,-12.6875l-12.4375,-27.46875h12.60938c3.6,0 5.37325,-4.379 2.78125,-6.875l-41.28125,-39.73438c-1.374,-1.32 -3.09484,-1.78602 -4.70313,-1.57813z"/></g></g></svg>
