<?xml version="1.0" encoding="iso-8859-1"?>
<!-- Generator: Adobe Illustrator 23.0.1, SVG Export Plug-In . SVG Version: 6.00 Build 0)  -->
<svg xmlns="http://www.w3.org/2000/svg" xmlns:xlink="http://www.w3.org/1999/xlink" version="1.1" id="Layer_1" x="0px" y="0px" viewBox="0 0 64 64" style="enable-background:new 0 0 64 64;" xml:space="preserve" width="64px" height="64px">
<radialGradient id="SVGID_1__118947" cx="32.5" cy="31.5" r="30.5164" gradientUnits="userSpaceOnUse" spreadMethod="reflect">
	<stop offset="0" style="stop-color:#AFEEFF"/>
	<stop offset="0.1927" style="stop-color:#BBF1FF"/>
	<stop offset="0.7025" style="stop-color:#D7F8FF"/>
	<stop offset="1" style="stop-color:#E1FAFF"/>
</radialGradient>
<path style="fill:url(#SVGID_1__118947);" d="M59,20h1.5c2.168,0,3.892-1.998,3.422-4.243C63.58,14.122,62.056,13,60.385,13L53,13  c-1.105,0-2-0.895-2-2c0-1.105,0.895-2,2-2h3.385c1.67,0,3.195-1.122,3.537-2.757C60.392,3.998,58.668,2,56.5,2H34.006H32.5h-24  C6.575,2,5,3.575,5,5.5S6.575,9,8.5,9H10c1.105,0,2,0.895,2,2c0,1.105-0.895,2-2,2l-5.385,0c-1.67,0-3.195,1.122-3.537,2.757  C0.608,18.002,2.332,20,4.5,20H18v12L4.615,32c-1.67,0-3.195,1.122-3.537,2.757C0.608,37.002,2.332,39,4.5,39H5c1.105,0,2,0.895,2,2  c0,1.105-0.895,2-2,2H4.5c-2.168,0-3.892,1.998-3.422,4.243C1.42,48.878,2.945,50,4.615,50H10c1.105,0,2,0.895,2,2  c0,1.105-0.895,2-2,2l-1.385,0c-1.67,0-3.195,1.122-3.537,2.757C4.608,59.002,6.332,61,8.5,61h22.494H32.5h23  c1.925,0,3.5-1.575,3.5-3.5S57.425,54,55.5,54H55c-1.105,0-2-0.895-2-2c0-1.105,0.895-2,2-2h4.385c1.67,0,3.195-1.122,3.537-2.757  C63.392,44.998,61.668,43,59.5,43H47V31h12.385c1.67,0,3.195-1.122,3.537-2.757C63.392,25.998,61.668,24,59.5,24H59  c-1.105,0-2-0.895-2-2C57,20.895,57.895,20,59,20z"/>
<linearGradient id="SVGID_2__118947" gradientUnits="userSpaceOnUse" x1="32" y1="68.6115" x2="32" y2="18.6115" spreadMethod="reflect">
	<stop offset="0" style="stop-color:#155CDE"/>
	<stop offset="0.2782" style="stop-color:#1F7FE5"/>
	<stop offset="0.5693" style="stop-color:#279CEB"/>
	<stop offset="0.8201" style="stop-color:#2CAFEF"/>
	<stop offset="1" style="stop-color:#2EB5F0"/>
</linearGradient>
<path style="fill:url(#SVGID_2__118947);" d="M57,31c0,13.805-11.195,25-25,25S7,44.805,7,31S18.195,6,32,6S57,17.195,57,31z"/>
<path style="fill:#FFFFFF;" d="M50,31c0,9.94-8.06,18-18,18s-18-8.06-18-18s8.06-18,18-18S50,21.06,50,31z"/>
<linearGradient id="SVGID_3__118947" gradientUnits="userSpaceOnUse" x1="35.5" y1="16" x2="35.5" y2="40" spreadMethod="reflect">
	<stop offset="0" style="stop-color:#A4A4A4"/>
	<stop offset="0.6187" style="stop-color:#808080"/>
	<stop offset="1" style="stop-color:#6F6F6F"/>
	<stop offset="1" style="stop-color:#6F6F6F"/>
</linearGradient>
<path style="fill:url(#SVGID_3__118947);" d="M40.414,36.586l-6-6c-0.126-0.126-0.267-0.224-0.414-0.309V18c0-1.105-0.895-2-2-2  s-2,0.895-2,2v14c0,1.105,0.895,2,2,2c0.053,0,0.104-0.012,0.156-0.016l5.43,5.43c0.781,0.781,2.047,0.781,2.828,0  C41.195,38.633,41.195,37.367,40.414,36.586z"/>
<linearGradient id="SVGID_4__118947" gradientUnits="userSpaceOnUse" x1="32" y1="27" x2="32" y2="35" spreadMethod="reflect">
	<stop offset="0" style="stop-color:#A4A4A4"/>
	<stop offset="0.6187" style="stop-color:#808080"/>
	<stop offset="1" style="stop-color:#6F6F6F"/>
	<stop offset="1" style="stop-color:#6F6F6F"/>
</linearGradient>
<circle style="fill:url(#SVGID_4__118947);" cx="32" cy="31" r="4"/>
</svg>
